<svg width="971" height="110" viewBox="0 0 971 110" fill="none" xmlns="http://www.w3.org/2000/svg">
<path d="M0.507813 109V1.74999H20.6078L70.2578 36.55H71.0078L120.658 1.74999H140.758V109H116.758V31.75L82.7078 54.55V109H58.7078V54.55L24.5078 31.75V109H0.507813ZM196.137 109.75C182.737 109.75 172.287 106.45 164.787 99.85C157.287 93.15 153.537 83.35 153.537 70.45C153.537 57.45 157.287 47.65 164.787 41.05C172.287 34.35 182.737 31 196.137 31H233.637C242.437 31 249.137 33.1 253.737 37.3C258.437 41.4 260.787 47.3 260.787 55C260.787 70.7 251.737 78.55 233.637 78.55H176.937C179.037 87.85 185.437 92.5 196.137 92.5H256.887V109.75H196.137ZM196.137 48.25C185.837 48.25 179.487 52.6 177.087 61.3H232.587C234.587 61.3 236.137 60.7 237.237 59.5C238.437 58.3 239.037 56.65 239.037 54.55C239.037 50.35 236.887 48.25 232.587 48.25H196.137ZM314.44 109C305.74 109 299.34 106.85 295.24 102.55C291.14 98.15 289.09 92.4 289.09 85.3V49H266.74V31.75H289.09V8.04999H310.84V31.75H342.94V49H310.84V82.6C310.84 88.7 313.84 91.75 319.84 91.75H347.14V109H314.44ZM375.872 109C367.772 109 361.572 106.95 357.272 102.85C352.972 98.75 350.822 92.9 350.822 85.3C350.822 77.8 352.972 72 357.272 67.9C361.572 63.8 367.772 61.75 375.872 61.75H433.472V58.15C433.472 52.05 430.472 49 424.472 49H360.872V31.75H430.172C439.272 31.75 445.722 33.85 449.522 38.05C453.322 42.15 455.222 47.95 455.222 55.45V109H375.872ZM379.772 91.75H433.472V79H379.772C377.872 79 376.372 79.6 375.272 80.8C374.272 81.9 373.772 83.4 373.772 85.3C373.772 87.2 374.272 88.75 375.272 89.95C376.372 91.15 377.872 91.75 379.772 91.75ZM575.669 109.75C555.869 109.75 540.719 105.2 530.219 96.1C519.719 86.9 514.469 73.3 514.469 55.3C514.469 37.4 519.719 23.85 530.219 14.65C540.719 5.45 555.869 0.899997 575.669 0.999996L629.669 1.29999V20.5H577.319C564.319 20.5 554.669 23.25 548.369 28.75C542.069 34.25 538.919 43.1 538.919 55.3C538.919 67.5 542.069 76.4 548.369 82C554.669 87.5 564.319 90.25 577.319 90.25H631.169V109.75H575.669ZM640.902 109V31.75H700.002C708.702 31.75 715.102 33.95 719.202 38.35C723.302 42.65 725.352 48.35 725.352 55.45V71.5H703.302V58.15C703.302 52.15 700.302 49.15 694.302 49.15H662.952V109H640.902ZM776.819 109.75C763.419 109.75 752.969 106.45 745.469 99.85C737.969 93.15 734.219 83.35 734.219 70.45C734.219 57.45 737.969 47.65 745.469 41.05C752.969 34.35 763.419 31 776.819 31H814.319C823.119 31 829.819 33.1 834.419 37.3C839.119 41.4 841.469 47.3 841.469 55C841.469 70.7 832.419 78.55 814.319 78.55H757.619C759.719 87.85 766.119 92.5 776.819 92.5H837.569V109.75H776.819ZM776.819 48.25C766.519 48.25 760.169 52.6 757.769 61.3H813.269C815.269 61.3 816.819 60.7 817.919 59.5C819.119 58.3 819.719 56.65 819.719 54.55C819.719 50.35 817.569 48.25 813.269 48.25H776.819ZM855.592 109L848.242 31.75H870.142L875.242 90.4L898.492 79.9V31.75H920.242V80.05L943.492 90.4L948.592 31.75H970.492L963.142 109H942.592L909.292 94.3L876.142 109H855.592Z" fill="black"/>
</svg>
