<svg width="1755" height="500" viewBox="0 0 1755 500" fill="none" xmlns="http://www.w3.org/2000/svg">
<path d="M801.2 168.4V340H754.4V271.36L755.44 215.98H754.92L717.22 340H674.58L637.4 215.98H636.62L637.66 271.36V340H590.86V168.4H665.74L688.88 249.78L697.46 283.84H697.98L706.56 249.78L729.7 168.4H801.2ZM827.379 340V168.4H965.699V208.18H880.419V236H948.539V272.92H880.419V300.22H969.079V340H827.379ZM1138.06 168.4V208.18H1083.46V340H1030.42V208.18H975.3V168.4H1138.06ZM1296.61 340H1242.01L1232.39 304.38H1180.13L1170.25 340H1117.21L1174.93 168.4H1238.63L1296.61 340ZM1188.97 270.06H1223.81L1206.39 206.1L1188.97 270.06ZM1525.14 340H1470.54L1460.92 304.38H1408.66L1398.78 340H1345.74L1403.46 168.4H1467.16L1525.14 340ZM1417.5 270.06H1452.34L1434.92 206.1L1417.5 270.06ZM1558.05 198.56C1547.65 198.56 1540.11 196.74 1535.43 193.1C1530.93 189.46 1528.67 183.567 1528.67 175.42C1528.67 167.1 1530.93 161.12 1535.43 157.48C1540.11 153.84 1547.65 152.02 1558.05 152.02C1568.45 152.02 1575.91 153.84 1580.41 157.48C1585.09 161.12 1587.43 167.1 1587.43 175.42C1587.43 183.567 1585.09 189.46 1580.41 193.1C1575.91 196.74 1568.45 198.56 1558.05 198.56ZM1584.31 210V340H1531.79V210H1584.31ZM1651.34 342.6C1640.77 342.6 1631.58 340 1623.78 334.8C1616.16 329.427 1610.26 321.713 1606.1 311.66C1602.12 301.607 1600.12 289.56 1600.12 275.52C1600.12 261.133 1602.2 248.913 1606.36 238.86C1610.52 228.633 1616.5 220.833 1624.3 215.46C1632.28 210.087 1641.55 207.4 1652.12 207.4C1664.43 207.4 1674.05 211.3 1680.98 219.1C1687.92 226.727 1692.34 236.52 1694.24 248.48L1689.56 254.98V156.44H1742.08V340H1694.76L1691.64 291.38L1697.62 297.36C1696.58 306.2 1693.98 314.087 1689.82 321.02C1685.84 327.78 1680.55 333.067 1673.96 336.88C1667.55 340.693 1660.01 342.6 1651.34 342.6ZM1671.62 305.16C1675.44 305.16 1678.64 304.033 1681.24 301.78C1683.84 299.527 1685.84 296.147 1687.22 291.64C1688.78 287.133 1689.56 281.5 1689.56 274.74C1689.56 268.327 1688.87 262.953 1687.48 258.62C1686.27 254.113 1684.28 250.733 1681.5 248.48C1678.9 246.227 1675.61 245.1 1671.62 245.1C1665.9 245.1 1661.31 247.353 1657.84 251.86C1654.55 256.193 1652.9 263.907 1652.9 275C1652.9 286.093 1654.55 293.893 1657.84 298.4C1661.14 302.907 1665.73 305.16 1671.62 305.16Z" fill="white"/>
<path d="M439.75 312.375C433.875 318.25 427.125 323.125 420 327.375C396.125 341.125 379.25 342.375 351.5 366.375C320.667 393.125 300.875 425.375 292.125 463.125C237.458 400.625 243.917 338.125 311.5 275.625C325 263.125 340.25 252.25 357.125 244.75C364.125 241.625 374.625 234.25 384.625 217.125C398.958 174.958 415.125 149.208 433.125 139.875C443.542 134.708 445.875 144.417 440.125 169C438.542 185.917 425.458 219.708 400.875 270.375C448.125 204.375 461.833 155.542 442 123.875C425.25 90.2917 423.833 61.5 437.75 37.5C445.417 35.5833 450.333 39 452.5 47.75C450 71.5 460.917 101.375 485.25 137.375C487.417 143.375 488.292 147.875 487.875 150.875C487.625 152.625 496.625 255.625 439.75 312.375V312.375Z" fill="white"/>
<path d="M354.875 169.75C349.625 153.167 352.584 139 363.75 127.25C378 167.333 384.834 192 384.25 201.25C383.667 210.5 377.792 219.917 366.625 229.5C363.959 206.333 360.042 186.417 354.875 169.75Z" fill="#007CFE"/>
<path d="M370.125 123.875C363.542 99.9583 366.542 83.3333 379.125 74C382.042 70.75 384.542 70.75 386.625 74C386.375 89.6667 392.834 117.125 406 156.375C401.667 161.958 395.667 172.042 388 186.625C386.084 177.125 380.125 156.208 370.125 123.875V123.875Z" fill="white"/>
<path d="M398.625 103.5C390.792 75.4999 394 58.7083 408.25 53.1249C416.833 49.6249 421.167 55.3333 421.25 70.2499C420.167 84.0833 425.208 104.917 436.375 132.75C430.375 133.083 422.333 138.292 412.25 148.375C410.667 145.292 406.125 130.333 398.625 103.5V103.5Z" fill="white"/>
<path d="M208.625 463.125C199.959 425.375 180.167 393.125 149.25 366.375C121.5 342.375 104.625 341.125 80.8752 327.375C73.7502 323.125 66.8752 318.25 61.0002 312.375C4.12517 255.625 13.1252 152.625 12.8752 150.875C12.5418 147.875 13.4585 143.375 15.6252 137.375C39.9585 101.375 50.8752 71.5 48.3752 47.75C50.5418 39 55.4585 35.5833 63.1252 37.5C77.0418 61.5 75.6252 90.2917 58.8752 123.875C39.0418 155.542 52.7502 204.375 100 270.375C75.4168 219.708 62.2918 185.917 60.6252 169C54.9585 144.417 57.3335 134.708 67.7502 139.875C85.7502 149.208 101.917 174.958 116.25 217.125C126.25 234.25 136.75 241.625 143.75 244.75C160.625 252.25 175.75 263.125 189.375 275.625C256.959 338.125 263.375 400.625 208.625 463.125Z" fill="white"/>
<path d="M138.25 127.25C149.417 139 152.417 153.167 147.25 169.75C142.083 186.417 138.125 206.333 135.375 229.5C124.208 219.917 118.375 210.5 117.875 201.25C117.292 192 124.083 167.333 138.25 127.25V127.25Z" fill="#FFD500"/>
<path d="M114.25 74C116.333 70.75 118.833 70.75 121.75 74C134.25 83.3333 137.25 99.9583 130.75 123.875C120.75 156.208 114.792 177.125 112.875 186.625C105.125 172.042 99.125 161.958 94.875 156.375C107.958 117.125 114.417 89.6667 114.25 74Z" fill="white"/>
<path d="M79.5 70.2499C79.6667 55.3333 84.0417 49.6249 92.625 53.1249C106.875 58.7083 110.083 75.4999 102.25 103.5C94.75 130.333 90.1667 145.292 88.5 148.375C78.4167 138.292 70.375 133.083 64.375 132.75C75.625 104.917 80.6667 84.0833 79.5 70.2499V70.2499Z" fill="white"/>
<path fill-rule="evenodd" clip-rule="evenodd" d="M250.375 256.25C209.875 256.25 176.875 223.375 176.875 182.75C176.875 142.125 209.875 109.25 250.375 109.25C291 109.25 323.875 142.125 323.875 182.75C323.875 223.375 291 256.25 250.375 256.25ZM297.25 149.875C281.167 134.958 265.542 137.375 250.375 157.125C235.292 137.375 219.667 134.958 203.5 149.875C191.875 160.75 202.375 180.375 216.375 198C226.375 210.5 237.708 222.167 250.375 233C297.708 192.5 313.333 164.792 297.25 149.875Z" fill="#FFD500"/>
</svg>
